# AST/ASF file generated using VICON BodyLanguage
# -----------------------------------------------
:version 1.10
:name VICON
:units
  mass 1.0
  length 0.45
  angle deg
:documentation
   .ast/.asf automatically generated from VICON data using
   VICON BodyBuilder and BodyLanguage model FoxedUp or BRILLIANT.MOD
:root
   order TX TY TZ RX RY RZ
   axis XYZ
   position 0 0 0  
   orientation 0 0 0 
:bonedata
  begin
     id 1 
     name lhipjoint
     direction 0.567149 -0.783011 0.255413 
     length 2.28399 
     axis 0 0 0  XYZ
  end
  begin
     id 2 
     name lfemur
     direction 0.34202 -0.939693 0  
     length 7.34031  
     axis 0 0 20  XYZ
    dof rx ry rz
    limits (-160.0 20.0)
           (-70.0 70.0)
           (-60.0 70.0)
  end
  begin
     id 3 
     name ltibia
     direction 0.34202 -0.939693 0   
     length 6.9833   
     axis 0 0 20   XYZ
    dof rx
    limits (-10.0 170.0)
  end
  begin
     id 4 
     name lfoot
     direction 0.136498 -0.375025 0.91691   
     length 2.33665   
     axis -90 7.62852e-016 20   XYZ
    dof rx rz
    limits (-45.0 90.0)
           (-70.0 20.0)
  end
  begin
     id 5 
     name ltoes
     direction 1.5367e-011 -4.21617e-011 1   
     length 1.15039   
     axis -90 7.62852e-016 20   XYZ
    dof rx
    limits (-90.0 20.0)
  end
  begin
     id 6 
     name rhipjoint
     direction -0.602854 -0.758518 0.247423   
     length 2.35775  
     axis 0 0 0  XYZ 
  end
  begin
     id 7 
     name rfemur
     direction -0.34202 -0.939693 0   
     length 7.43932   
     axis 0 0 -20   XYZ
    dof rx ry rz
    limits (-160.0 20.0)
           (-70.0 70.0)
           (-70.0 60.0)
  end
  begin
     id 8 
     name rtibia
     direction -0.34202 -0.939693 0   
     length 7.11893   
     axis 0 0 -20   XYZ
    dof rx
    limits (-10.0 170.0)
 end
 begin
     id 9 
     name rfoot
     direction -0.131771 -0.362037 0.922803   
     length 2.53019  
     axis -90 -7.62852e-016 -20   XYZ
    dof rx rz
    limits (-45.0 90.0)
           (-20.0 70.0)
  end
  begin
     id 10 
     name rtoes
     direction -1.53733e-011 -4.21932e-011 1   
     length 1.24596   
     axis -90 -7.62852e-016 -20   XYZ
    dof rx
    limits (-90.0 20.0)
  end
  begin
     id 11 
     name lowerback
     direction 0.0235427 0.999023 -0.0374125   
     length 2.21768   
     axis 0 0 0   XYZ
    dof rx ry rz
    limits (-20.0 45.0)
           (-30.0 30.0)
           (-30.0 30.0)
  end
  begin
     id 12 
     name upperback
     direction 0.0302156 0.996818 -0.073759   
     length 2.20352   
     axis 0 0 0   XYZ
    dof rx ry rz
    limits (-20.0 45.0)
           (-30.0 30.0)
           (-30.0 30.0)
  end
  begin
     id 13 
     name thorax
     direction 0.0187169 0.998235 -0.0563532   
     length 2.22103   
     axis 0 0 0   XYZ
    dof rx ry rz
    limits (-20.0 45.0)
           (-30.0 30.0)
           (-30.0 30.0)
  end
  begin
     id 14 
     name lowerneck
     direction -0.119528 0.987423 0.103481   
     length 1.72948   
     axis 0 0 0   XYZ
    dof rx ry rz
    limits (-20.0 45.0)
           (-30.0 30.0)
           (-30.0 30.0)
  end
  begin
     id 15 
     name upperneck
     direction 0.248049 0.963095 -0.104496   
     length 1.74979   
     axis 0 0 0   XYZ
    dof rx ry rz
    limits (-20.0 45.0)
           (-30.0 30.0)
           (-30.0 30.0)
  end
  begin
     id 16
     name head
     direction 0.0903589 0.994284 -0.056876  
     length 1.78268  
     axis 0 0 0   XYZ
    dof rx ry rz
    limits (-20.0 45.0)
           (-30.0 30.0)
           (-30.0 30.0)
  end
  begin
     id 17 
     name lclavicle
     direction 0.946008 0.242039 -0.215608  
     length 3.80783  
     axis 0 0 0   XYZ
    dof ry rz
    limits (-20.0 10.0)
           (0.0 20.0)
  end
  begin
     id 18 
     name lhumerus
     direction 1 -4.48991e-011 -2.25695e-027   
     length 4.83125   
     axis 180 -30 -90   XYZ
    dof rx ry rz
    limits (-60.0 90.0)
           (-90.0 90.0)
           (-90.0 90.0)
  end
  begin
     id 19
     name lradius
     direction 0.999991 0.00366712 -0.00211721   
     length 3.00391   
     axis 180 -30 -90   XYZ
    dof rx
    limits (-10.0 170.0)
  end
  begin
     id 20
     name lwrist
     direction 0.999991 0.00393016 -0.00141978   
     length 1.50195   
     axis -1.00488e-014 90 90   XYZ
    dof ry
    limits (-180.0 0.0)
 end
  begin
     id 21 
     name lhand
     direction 1 -4.49123e-011 2.72098e-026   
     length 1.2717   
     axis -1.73687e-014 90 90   XYZ
    dof rx rz
    limits (-90.0 90.0)
           (-45.0 45.0)
  end
  begin
     id 22 
     name lfingers
     direction 1 -4.48678e-011 5.4479e-026   
     length 1.02528   
     axis -3.47372e-014 90 90   XYZ
    dof rx
    limits (0.0 90.0)
  end
  begin
     id 23
     name lthumb
     direction 0.707107 -6.34851e-011 0.707107   
     length 1.4721   
     axis -90 45 -1.62303e-014   XYZ
    dof rx rz
    limits (-45.0 45.0)
           (-45.0 45.0)
  end
  begin
     id 24 
     name rclavicle
     direction -0.981723 0.189447 -0.0181673   
     length 3.74989  
     axis 0 0 0   XYZ 
    dof ry rz
    limits (-10.0 20.0)
           (-20.0 0.0)
  end
  begin
     id 25 
     name rhumerus
     direction -1 -4.48985e-011 2.38206e-027  
     length 4.61118   
     axis 180 30 90   XYZ
    dof rx ry rz
    limits (-90.0 60.0)
           (-90.0 90.0)
           (-90.0 90.0)
  end
  begin
     id 26 
     name rradius
     direction -1 -4.48977e-011 7.41019e-027   
     length 2.91491   
     axis 180 30 90   XYZ
    dof rx
    limits (-10.0 170.0)
  end
  begin
     id 27 
     name rwrist
     direction -1 -4.48549e-011 1.3624e-026   
     length 1.45745   
     axis -1.00488e-014 -90 -90   XYZ
    dof ry
    limits (-180.0 0.0)
  end
  begin
     id 28
     name rhand
     direction -1 -4.49107e-011 2.72109e-026   
     length 1.30769   
     axis -1.73687e-014 -90 -90   XYZ
    dof rx rz
    limits (-90.0 90.0)
           (-45.0 45.0)
  end
  begin
     id 29
     name rfingers
     direction -1 -4.48919e-011 5.44468e-026   
     length 1.05429   
     axis -3.47372e-014 -90 -90   XYZ
    dof rx
    limits (0.0 90.0)
  end
  begin
     id 30
     name rthumb
     direction -0.707107 -6.35315e-011 0.707107   
     length 1.51376   
     axis -90 -45 1.62303e-014   XYZ
    dof rx rz
    limits (-45.0 45.0)
           (-45.0 45.0)
  end
:hierarchy
  begin
    root lhipjoint rhipjoint lowerback
    lhipjoint lfemur
    lfemur ltibia
    ltibia lfoot
    lfoot ltoes
    rhipjoint rfemur
    rfemur rtibia
    rtibia rfoot
    rfoot rtoes
    lowerback upperback
    upperback thorax
    thorax lowerneck lclavicle rclavicle
    lowerneck upperneck
    upperneck head
    lclavicle lhumerus
    lhumerus lradius
    lradius lwrist
    lwrist lhand lthumb
    lhand lfingers
    rclavicle rhumerus
    rhumerus rradius
    rradius rwrist
    rwrist rhand rthumb
    rhand rfingers
  end

#!OML:ASF X:\für Bonn\!DataBase\2005_08_11_Bastian_Final\c3d\Bastian.ASF
:FULLY-SPECIFIED
:DEGREES
1
root -0.781151 17.3832 -1.78187 200.414 79.3235 -145.178
lowerback 8.94002 -1.20985 5.62408
upperback 9.80254 -0.804832 1.56774
thorax 5.20637 0.137342 -1.44525
lowerneck -1.89156 -7.27889 -5.83344
upperneck 2.16161 -9.85141 11.2052
head 1.80555 -4.77759 4.02327
rclavicle -3.79244e-015 -9.96408e-015
rhumerus -31.8947 2.23146 -85.1723
rradius 29.0418
rwrist -2.71242
rhand -25.2083 -1.75013
rfingers 7.12502
rthumb 1.31035 -31.7259
lclavicle -3.79244e-015 -9.96408e-015
lhumerus -23.7668 5.31471 85.6672
lradius 7.25968
lwrist 3.48938
lhand -12.3495 -6.76987
lfingers 7.12502
lthumb 13.7202 22.7578
rfemur 3.23326 -1.3848 32.1039
rtibia 29.433
rfoot -10.9662 -9.02141
rtoes 9.21701
lfemur -9.45872 1.36267 -9.86689
ltibia 61.5644
lfoot -1.73583 -11.6224
ltoes -22.6581
2
root -0.655033 17.3806 -1.78842 200.608 79.4658 -145
lowerback 8.93207 -1.12527 5.61219
upperback 9.79869 -0.694053 1.54861
thorax 5.21383 0.192295 -1.4637
lowerneck -1.81835 -7.33014 -5.92347
upperneck 2.30792 -9.93448 11.2801
head 1.85216 -4.81698 4.05605
rclavicle 1.31446e-014 -1.20265e-014
rhumerus -31.7638 2.42941 -85.1615
rradius 29.493
rwrist -2.79764
rhand -25.1626 -1.91035
rfingers 7.12502
rthumb 1.35449 -31.8858
lclavicle 1.31446e-014 -1.20265e-014
lhumerus -24.0782 5.27319 85.6917
lradius 7.08996
lwrist 3.86242
lhand -12.562 -6.63608
lfingers 7.12502
lthumb 13.5153 22.9053
rfemur 3.79051 -1.26725 32.1494
rtibia 29.3003
rfoot -11.3784 -9.07713
rtoes 9.45053
lfemur -10.0379 1.1923 -10.0853
ltibia 60.011
lfoot -2.23041 -11.7264
ltoes -22.377
3
root -0.52895 17.3759 -1.79497 200.789 79.6069 -144.822
lowerback 8.91922 -1.04834 5.61388
upperback 9.82133 -0.591624 1.50896
thorax 5.25214 0.246728 -1.51042
lowerneck -1.81162 -7.3821 -5.98013
upperneck 2.47899 -10.0192 11.3522
head 1.91548 -4.85406 4.07957
rclavicle 2.12016e-014 -2.07978e-014
rhumerus -31.5644 2.5401 -85.1634
rradius 29.8927
rwrist -2.80721
rhand -25.148 -1.98581
rfingers 7.12502
rthumb 1.36866 -31.9612
lclavicle 2.12016e-014 -2.07978e-014
lhumerus -24.3202 5.21836 85.6531
lradius 6.9038
lwrist 4.24779
lhand -12.7281 -6.53278
lfingers 7.12502
lthumb 13.3553 23.0192
rfemur 4.38409 -1.15649 32.1929
rtibia 29.1221
rfoot -11.7684 -9.12876
rtoes 9.68594
lfemur -10.5243 1.03043 -10.2928
ltibia 58.3011
lfoot -2.59368 -11.8037
ltoes -22.2389
4
root -0.402911 17.3701 -1.80285 201.095 79.7124 -144.536
lowerback 8.87934 -0.97175 5.64619
upperback 9.83407 -0.491125 1.4904
thorax 5.29513 0.300961 -1.55208
lowerneck -1.69521 -7.43107 -6.02821
upperneck 2.5274 -10.0935 11.4185
head 1.92308 -4.89247 4.10711
rclavicle -4.08627e-014 1.26228e-014
rhumerus -31.3724 2.53217 -85.0979
rradius 30.2915
rwrist -2.73705
rhand -25.0453 -2.03307
rfingers 7.12502
rthumb 1.4678 -32.0078
lclavicle -4.08627e-014 1.26228e-014
lhumerus -24.5903 5.15402 85.6533
lradius 6.79207
lwrist 4.6414
lhand -12.8725 -6.41408
lfingers 7.12502
lthumb 13.2161 23.147
rfemur 4.96929 -1.12192 32.2529
rtibia 28.9229
rfoot -12.1206 -9.14795
rtoes 9.60759
lfemur -10.9438 0.853232 -10.4568
ltibia 56.461
lfoot -2.76639 -11.8366
ltoes -21.6647
5
root -0.277886 17.3642 -1.81052 201.432 79.829 -144.231
lowerback 8.84207 -0.898715 5.67869
upperback 9.84873 -0.394949 1.45977
thorax 5.33865 0.353508 -1.60612
lowerneck -1.6386 -7.48421 -6.04128
upperneck 2.63558 -10.1761 11.4515
head 1.95537 -4.93189 4.11534
rclavicle 9.61621e-015 4.42296e-015
rhumerus -31.1953 2.68954 -85.1054
rradius 30.7112
rwrist -2.81569
rhand -25.0391 -2.05157
rfingers 7.12502
rthumb 1.47377 -32.0262
lclavicle 9.61621e-015 4.42296e-015
lhumerus -24.8336 5.11085 85.6456
lradius 6.69314
lwrist 5.03418
lhand -12.9916 -6.27604
lfingers 7.12502
lthumb 13.1013 23.2924
rfemur 5.54603 -1.04883 32.3124
rtibia 28.693
rfoot -12.4785 -9.16475
rtoes 9.65867
lfemur -11.2985 0.710942 -10.6283
ltibia 54.5006
lfoot -2.88743 -11.7864
ltoes -20.368
6
root -0.15271 17.3576 -1.81936 201.722 79.9661 -143.963
lowerback 8.81218 -0.82222 5.7096
upperback 9.8611 -0.29357 1.41946
thorax 5.37617 0.408638 -1.66951
lowerneck -1.56062 -7.53946 -6.08994
upperneck 2.73006 -10.2622 11.5418
head 1.9854 -4.97314 4.14716
rclavicle -1.37783e-014 2.13694e-015
rhumerus -31.0059 2.75776 -85.0964
rradius 31.0146
rwrist -2.78183
rhand -24.9892 -1.93301
rfingers 7.12502
rthumb 1.52196 -31.9073
lclavicle -1.37783e-014 2.13694e-015
lhumerus -25.0843 5.05235 85.6002
lradius 6.62374
lwrist 5.42132
lhand -13.1162 -6.12464
lfingers 7.12502
lthumb 12.9812 23.4515
rfemur 6.15943 -1.0147 32.3293
rtibia 28.4213
rfoot -12.8353 -9.10393
rtoes 9.65665
lfemur -11.5562 0.567478 -10.8205
ltibia 52.4463
lfoot -3.12741 -11.6755
ltoes -18.8732
7
root -0.0269972 17.3529 -1.82861 202.127 80.071 -143.594
lowerback 8.76001 -0.747561 5.76353
upperback 9.87908 -0.195371 1.39651
thorax 5.43259 0.463831 -1.72709
lowerneck -1.5082 -7.60192 -6.16641
upperneck 2.82653 -10.3581 11.6614
head 2.02427 -5.01809 4.19051
rclavicle 7.61594e-015 -4.47266e-016
rhumerus -30.7974 2.83963 -85.0606
rradius 31.3417
rwrist -2.77787
rhand -24.9106 -1.82715
rfingers 7.12502
rthumb 1.59793 -31.8009
lclavicle 7.61594e-015 -4.47266e-016
lhumerus -25.3121 4.99159 85.5918
lradius 6.55963
lwrist 5.76246
lhand -13.1957 -6.0298
lfingers 7.12502
lthumb 12.9045 23.5512
rfemur 6.77853 -0.994405 32.3801
rtibia 28.0973
rfoot -13.1454 -9.09276
rtoes 9.5445
lfemur -11.8127 0.49509 -10.9796
ltibia 50.3088
lfoot -3.3464 -11.5623
ltoes -18.1091
8
root 0.0976754 17.3511 -1.83752 202.411 80.164 -143.367
lowerback 8.70247 -0.677587 5.81912
upperback 9.88819 -0.103645 1.33665
thorax 5.48227 0.51637 -1.824
lowerneck -1.5115 -7.66878 -6.15618
upperneck 2.99512 -10.4653 11.7805
head 2.09028 -5.06334 4.21597
rclavicle 2.44505e-014 -1.78906e-015
rhumerus -30.6003 2.9009 -85.0881
rradius 31.6333
rwrist -2.82147
rhand -24.8621 -1.67147
rfingers 7.12502
rthumb 1.6448 -31.6449
lclavicle 2.44505e-014 -1.78906e-015
lhumerus -25.518 4.90034 85.5252
lradius 6.51238
lwrist 6.10461
lhand -13.3122 -5.98729
lfingers 7.12502
lthumb 12.7923 23.6008
rfemur 7.4065 -0.948168 32.4186
rtibia 27.7019
rfoot -13.4173 -9.09538
rtoes 9.40191
lfemur -12.0772 0.385011 -11.1687
ltibia 48.1128
lfoot -3.51308 -11.3951
ltoes -17.8007
9
root 0.222022 17.3509 -1.8473 202.653 80.2585 -143.182
lowerback 8.64409 -0.610173 5.85057
upperback 9.89173 -0.0174246 1.30883
thorax 5.52586 0.563132 -1.87359
lowerneck -1.45531 -7.72634 -6.2634
upperneck 3.1428 -10.5595 11.923
head 2.14668 -5.10585 4.2702
rclavicle 1.01007e-014 -2.98177e-016
rhumerus -30.4356 3.09111 -85.0761
rradius 31.9705
rwrist -2.94399
rhand -24.8785 -1.54708
rfingers 7.12502
rthumb 1.62891 -31.5206
lclavicle 1.01007e-014 -2.98177e-016
lhumerus -25.7688 4.84853 85.5174
lradius 6.52028
lwrist 6.43041
lhand -13.395 -6.00728
lfingers 7.12502
lthumb 12.7124 23.5858
rfemur 8.05499 -0.97137 32.4209
rtibia 27.2528
rfoot -13.66 -9.02732
rtoes 9.35187
lfemur -12.3284 0.316679 -11.3625
ltibia 45.9145
lfoot -3.61302 -11.2032
ltoes -17.1743
10
root 0.346221 17.3521 -1.85712 202.806 80.3634 -143.095
lowerback 8.57124 -0.538946 5.84522
upperback 9.91536 0.0717323 1.28125
thorax 5.5992 0.610729 -1.9019
lowerneck -1.4757 -7.78629 -6.35123
upperneck 3.30758 -10.6571 12.0764
head 2.22093 -5.14634 4.32099
rclavicle 9.39258e-015 -1.38155e-014
rhumerus -30.186 3.18762 -85.038
rradius 32.1876
rwrist -2.97803
rhand -24.9244 -1.29109
rfingers 7.12502
rthumb 1.58456 -31.265
lclavicle 9.39258e-015 -1.38155e-014
lhumerus -25.9355 4.80032 85.5108
lradius 6.51701
lwrist 6.79543
lhand -13.4681 -6.12323
lfingers 7.12502
lthumb 12.642 23.4742
rfemur 8.74681 -0.944078 32.417
rtibia 26.713
rfoot -13.8403 -9.02405
rtoes 9.13284
lfemur -12.5319 0.189032 -11.5764
ltibia 43.7049
lfoot -3.63288 -10.8895
ltoes -16.4312
11
root 0.469745 17.3505 -1.86909 203.013 80.4328 -142.975
lowerback 8.48952 -0.476875 5.90104
upperback 9.91562 0.150185 1.23178
thorax 5.65269 0.655857 -1.987
lowerneck -1.41948 -7.85302 -6.35094
upperneck 3.44933 -10.7636 12.1716
head 2.2688 -5.1942 4.34369
rclavicle 4.73356e-015 -1.65985e-014
rhumerus -29.9629 3.27687 -85.0269
rradius 32.3947
rwrist -3.07359
rhand -24.9355 -1.03536
rfingers 7.12502
rthumb 1.57387 -31.0093
lclavicle 4.73356e-015 -1.65985e-014
lhumerus -26.1395 4.71763 85.4645
lradius 6.54896
lwrist 7.08859
lhand -13.5782 -6.32722
lfingers 7.12502
lthumb 12.5358 23.2767
rfemur 9.43546 -0.886524 32.4384
rtibia 26.1038
rfoot -14.0038 -9.02229
rtoes 9.15671
lfemur -12.7333 0.0895949 -11.7629
ltibia 41.5597
lfoot -3.65243 -10.5398
ltoes -15.7255
